<svg xmlns="http://www.w3.org/2000/svg" xmlns:xlink="http://www.w3.org/1999/xlink" width="200" zoomAndPan="magnify" viewBox="0 0 150 67.499998" height="90" preserveAspectRatio="xMidYMid meet" version="1.0"><defs><g/><clipPath id="5933bdeff6"><path d="M 1.070312 33.503906 L 10.296875 33.503906 L 10.296875 53.214844 L 1.070312 53.214844 Z M 1.070312 33.503906 " clip-rule="nonzero"/></clipPath><clipPath id="bb10c73005"><path d="M 10.296875 48.105469 C 10.296875 50.921875 8.234375 53.203125 5.683594 53.203125 C 3.136719 53.203125 1.070312 50.921875 1.070312 48.105469 L 1.070312 38.601562 C 1.070312 35.785156 3.136719 33.503906 5.683594 33.503906 C 8.234375 33.503906 10.296875 35.785156 10.296875 38.601562 Z M 10.296875 48.105469 " clip-rule="nonzero"/></clipPath><clipPath id="00db266e8d"><path d="M 13.046875 12.976562 L 22.273438 12.976562 L 22.273438 54.0625 L 13.046875 54.0625 Z M 13.046875 12.976562 " clip-rule="nonzero"/></clipPath><clipPath id="1c0bd9fdd4"><path d="M 22.273438 48.929688 C 22.273438 51.742188 20.210938 54.027344 17.660156 54.027344 C 15.113281 54.027344 13.046875 51.742188 13.046875 48.929688 L 13.046875 18.074219 C 13.046875 15.261719 15.113281 12.976562 17.660156 12.976562 C 20.210938 12.976562 22.273438 15.261719 22.273438 18.074219 Z M 22.273438 48.929688 " clip-rule="nonzero"/></clipPath><clipPath id="db0dc5c335"><path d="M 25.882812 20.132812 L 33.503906 20.132812 L 33.503906 37.871094 L 25.882812 37.871094 Z M 25.882812 20.132812 " clip-rule="nonzero"/></clipPath><clipPath id="71e1438a44"><path d="M 33.503906 33.636719 C 33.503906 35.964844 31.796875 37.847656 29.691406 37.847656 C 27.589844 37.847656 25.882812 35.964844 25.882812 33.636719 L 25.882812 24.34375 C 25.882812 22.019531 27.589844 20.132812 29.691406 20.132812 C 31.796875 20.132812 33.503906 22.019531 33.503906 24.34375 Z M 33.503906 33.636719 " clip-rule="nonzero"/></clipPath><clipPath id="9a9368eb11"><path d="M 25.882812 39.480469 L 32.664062 39.480469 L 32.664062 53.226562 L 25.882812 53.226562 Z M 25.882812 39.480469 " clip-rule="nonzero"/></clipPath><clipPath id="6b5faad264"><path d="M 32.664062 49.457031 C 32.664062 51.527344 31.144531 53.203125 29.273438 53.203125 C 27.402344 53.203125 25.882812 51.527344 25.882812 49.457031 L 25.882812 43.226562 C 25.882812 41.160156 27.402344 39.480469 29.273438 39.480469 C 31.144531 39.480469 32.664062 41.160156 32.664062 43.226562 Z M 32.664062 49.457031 " clip-rule="nonzero"/></clipPath><clipPath id="29ba3e298f"><path d="M 37.199219 30.878906 L 46.425781 30.878906 L 46.425781 53.222656 L 37.199219 53.222656 Z M 37.199219 30.878906 " clip-rule="nonzero"/></clipPath><clipPath id="4639879bc0"><path d="M 46.425781 48.105469 C 46.425781 50.921875 44.359375 53.203125 41.8125 53.203125 C 39.265625 53.203125 37.199219 50.921875 37.199219 48.105469 L 37.199219 35.976562 C 37.199219 33.160156 39.265625 30.878906 41.8125 30.878906 C 44.359375 30.878906 46.425781 33.160156 46.425781 35.976562 Z M 46.425781 48.105469 " clip-rule="nonzero"/></clipPath></defs><g fill="#e31e25" fill-opacity="1"><g transform="translate(49.288228, 42.916769)"><g><path d="M 17.207031 -10.523438 C 17.207031 -14.640625 13.851562 -18.835938 8.667969 -18.835938 L 3.507812 -18.835938 C 2.085938 -18.835938 1.269531 -17.714844 1.269531 -16.699219 L 1.269531 -2.136719 C 1.269531 -1.117188 2.085938 0 3.507812 0 L 8.667969 0 C 13.851562 0 17.207031 -4.195312 17.207031 -8.285156 Z M 8.667969 -14.5625 C 11.054688 -14.5625 12.757812 -12.605469 12.757812 -10.523438 L 12.757812 -8.285156 C 12.757812 -6.203125 11.054688 -4.269531 8.667969 -4.269531 L 5.746094 -4.269531 L 5.746094 -14.5625 Z M 8.667969 -14.5625 "/></g></g></g><g fill="#e31e25" fill-opacity="1"><g transform="translate(67.382033, 42.916769)"><g><path d="M 3.507812 0 C 4.929688 0 5.746094 -1.117188 5.746094 -2.136719 L 5.746094 -16.699219 C 5.746094 -17.714844 4.929688 -18.835938 3.507812 -18.835938 C 2.085938 -18.835938 1.269531 -17.714844 1.269531 -16.699219 L 1.269531 -2.136719 C 1.269531 -1.117188 2.085938 0 3.507812 0 Z M 3.507812 0 "/></g></g></g><g fill="#e31e25" fill-opacity="1"><g transform="translate(74.395922, 42.916769)"><g><path d="M 17.96875 -9.40625 C 17.96875 -10.421875 17.132812 -11.539062 15.734375 -11.539062 L 9.429688 -11.539062 C 8.03125 -11.539062 7.191406 -10.421875 7.191406 -9.40625 C 7.191406 -8.386719 8.03125 -7.269531 9.429688 -7.269531 L 13.371094 -7.269531 C 12.910156 -5.617188 11.386719 -4.269531 9.429688 -4.269531 C 7.039062 -4.269531 5.363281 -6.203125 5.363281 -8.285156 L 5.363281 -10.523438 C 5.363281 -12.605469 7.039062 -14.5625 9.429688 -14.5625 C 10.625 -14.5625 11.414062 -14.132812 12.328125 -13.371094 C 12.734375 -13.039062 13.191406 -12.757812 13.878906 -12.757812 C 15.300781 -12.757812 16.113281 -13.851562 16.113281 -14.894531 C 16.113281 -15.453125 15.910156 -15.9375 15.53125 -16.34375 C 14.082031 -17.867188 11.667969 -18.835938 9.429688 -18.835938 C 4.246094 -18.835938 0.890625 -14.640625 0.890625 -10.523438 L 0.890625 -8.285156 C 0.890625 -4.167969 4.246094 0 9.429688 0 C 11.003906 0 12.453125 -0.433594 13.75 -1.144531 C 14.105469 -0.507812 14.820312 0 15.734375 0 C 17.132812 0 17.96875 -1.117188 17.96875 -2.136719 Z M 17.96875 -9.40625 "/></g></g></g><g fill="#e31e25" fill-opacity="1"><g transform="translate(93.658708, 42.916769)"><g><path d="M 3.507812 0 C 4.929688 0 5.746094 -1.117188 5.746094 -2.136719 L 5.746094 -16.699219 C 5.746094 -17.714844 4.929688 -18.835938 3.507812 -18.835938 C 2.085938 -18.835938 1.269531 -17.714844 1.269531 -16.699219 L 1.269531 -2.136719 C 1.269531 -1.117188 2.085938 0 3.507812 0 Z M 3.507812 0 "/></g></g></g><g fill="#e31e25" fill-opacity="1"><g transform="translate(100.672596, 42.916769)"><g><path d="M 15.046875 -16.699219 C 15.046875 -17.714844 14.207031 -18.835938 12.808594 -18.835938 L 2.492188 -18.835938 C 1.066406 -18.835938 0.253906 -17.714844 0.253906 -16.699219 C 0.253906 -15.683594 1.066406 -14.5625 2.492188 -14.5625 L 5.414062 -14.5625 L 5.414062 -2.136719 C 5.414062 -1.117188 6.253906 0 7.652344 0 C 9.046875 0 9.886719 -1.117188 9.886719 -2.136719 L 9.886719 -14.5625 L 12.808594 -14.5625 C 14.207031 -14.5625 15.046875 -15.683594 15.046875 -16.699219 Z M 15.046875 -16.699219 "/></g></g></g><g fill="#e31e25" fill-opacity="1"><g transform="translate(115.97101, 42.916769)"><g><path d="M 11.539062 0 C 12.9375 0 13.777344 -1.117188 13.777344 -2.136719 C 13.777344 -3.152344 12.9375 -4.269531 11.539062 -4.269531 L 5.746094 -4.269531 L 5.746094 -7.269531 L 9.253906 -7.269531 C 10.625 -7.269531 11.488281 -8.386719 11.488281 -9.40625 C 11.488281 -10.421875 10.625 -11.539062 9.253906 -11.539062 L 5.746094 -11.539062 L 5.746094 -14.5625 L 11.539062 -14.5625 C 12.9375 -14.5625 13.777344 -15.683594 13.777344 -16.699219 C 13.777344 -17.714844 12.9375 -18.835938 11.539062 -18.835938 L 3.507812 -18.835938 C 2.085938 -18.835938 1.269531 -17.714844 1.269531 -16.699219 L 1.269531 -2.136719 C 1.269531 -1.117188 2.085938 0 3.507812 0 Z M 11.539062 0 "/></g></g></g><g fill="#e31e25" fill-opacity="1"><g transform="translate(130.278329, 42.916769)"><g><path d="M 10.34375 -9.40625 L 14.640625 -15.503906 C 14.894531 -15.859375 15.023438 -16.265625 15.023438 -16.699219 C 15.023438 -17.714844 14.207031 -18.835938 12.785156 -18.835938 C 11.996094 -18.835938 11.3125 -18.425781 10.953125 -17.867188 L 7.652344 -13.21875 L 4.347656 -17.867188 C 3.941406 -18.425781 3.277344 -18.835938 2.492188 -18.835938 C 1.066406 -18.835938 0.253906 -17.714844 0.253906 -16.699219 C 0.253906 -16.265625 0.355469 -15.859375 0.609375 -15.503906 L 4.929688 -9.40625 L 0.609375 -3.328125 C 0.355469 -2.949219 0.253906 -2.542969 0.253906 -2.136719 C 0.253906 -1.117188 1.066406 0 2.492188 0 C 3.253906 0 3.964844 -0.40625 4.347656 -0.941406 L 7.652344 -5.59375 L 10.953125 -0.941406 C 11.3125 -0.40625 11.996094 0 12.785156 0 C 14.207031 0 15.023438 -1.117188 15.023438 -2.136719 C 15.023438 -2.542969 14.894531 -2.949219 14.640625 -3.328125 Z M 10.34375 -9.40625 "/></g></g></g><g fill="#e31e25" fill-opacity="1"><g transform="translate(50.939958, 52.156811)"><g><path d="M 4.21875 -1.328125 C 4.21875 -0.878906 4.050781 -0.535156 3.71875 -0.296875 C 3.382812 -0.0546875 2.890625 0.0625 2.234375 0.0625 C 1.640625 0.0625 1.175781 -0.0390625 0.84375 -0.25 C 0.507812 -0.457031 0.289062 -0.773438 0.1875 -1.203125 L 1.125 -1.359375 C 1.1875 -1.109375 1.3125 -0.925781 1.5 -0.8125 C 1.6875 -0.707031 1.941406 -0.65625 2.265625 -0.65625 C 2.941406 -0.65625 3.28125 -0.863281 3.28125 -1.28125 C 3.28125 -1.40625 3.238281 -1.507812 3.15625 -1.59375 C 3.082031 -1.6875 2.972656 -1.757812 2.828125 -1.8125 C 2.691406 -1.875 2.421875 -1.941406 2.015625 -2.015625 C 1.671875 -2.097656 1.429688 -2.164062 1.296875 -2.21875 C 1.160156 -2.269531 1.035156 -2.328125 0.921875 -2.390625 C 0.816406 -2.453125 0.722656 -2.53125 0.640625 -2.625 C 0.566406 -2.71875 0.507812 -2.828125 0.46875 -2.953125 C 0.425781 -3.085938 0.40625 -3.238281 0.40625 -3.40625 C 0.40625 -3.820312 0.5625 -4.140625 0.875 -4.359375 C 1.195312 -4.578125 1.65625 -4.6875 2.25 -4.6875 C 2.820312 -4.6875 3.25 -4.597656 3.53125 -4.421875 C 3.820312 -4.242188 4.007812 -3.945312 4.09375 -3.53125 L 3.15625 -3.40625 C 3.113281 -3.601562 3.015625 -3.75 2.859375 -3.84375 C 2.710938 -3.945312 2.503906 -4 2.234375 -4 C 1.648438 -4 1.359375 -3.816406 1.359375 -3.453125 C 1.359375 -3.335938 1.382812 -3.238281 1.4375 -3.15625 C 1.5 -3.082031 1.59375 -3.019531 1.71875 -2.96875 C 1.84375 -2.914062 2.09375 -2.847656 2.46875 -2.765625 C 2.914062 -2.671875 3.234375 -2.582031 3.421875 -2.5 C 3.609375 -2.414062 3.757812 -2.320312 3.875 -2.21875 C 3.988281 -2.113281 4.070312 -1.988281 4.125 -1.84375 C 4.1875 -1.695312 4.21875 -1.523438 4.21875 -1.328125 Z M 4.21875 -1.328125 "/></g></g></g><g fill="#e31e25" fill-opacity="1"><g transform="translate(55.414194, 52.156811)"><g><path d="M 4.9375 -2.328125 C 4.9375 -1.847656 4.84375 -1.425781 4.65625 -1.0625 C 4.46875 -0.695312 4.195312 -0.414062 3.84375 -0.21875 C 3.488281 -0.03125 3.070312 0.0625 2.59375 0.0625 C 1.875 0.0625 1.304688 -0.148438 0.890625 -0.578125 C 0.484375 -1.003906 0.28125 -1.585938 0.28125 -2.328125 C 0.28125 -3.066406 0.484375 -3.644531 0.890625 -4.0625 C 1.304688 -4.476562 1.878906 -4.6875 2.609375 -4.6875 C 3.335938 -4.6875 3.90625 -4.476562 4.3125 -4.0625 C 4.726562 -3.644531 4.9375 -3.066406 4.9375 -2.328125 Z M 3.953125 -2.328125 C 3.953125 -2.828125 3.832031 -3.21875 3.59375 -3.5 C 3.363281 -3.789062 3.035156 -3.9375 2.609375 -3.9375 C 2.171875 -3.9375 1.832031 -3.796875 1.59375 -3.515625 C 1.363281 -3.234375 1.25 -2.835938 1.25 -2.328125 C 1.25 -1.828125 1.367188 -1.429688 1.609375 -1.140625 C 1.847656 -0.847656 2.175781 -0.703125 2.59375 -0.703125 C 3.03125 -0.703125 3.363281 -0.84375 3.59375 -1.125 C 3.832031 -1.40625 3.953125 -1.804688 3.953125 -2.328125 Z M 3.953125 -2.328125 "/></g></g></g><g fill="#e31e25" fill-opacity="1"><g transform="translate(60.631957, 52.156811)"><g><path d="M 0.453125 0 L 0.453125 -4.625 L 1.421875 -4.625 L 1.421875 -0.75 L 3.890625 -0.75 L 3.890625 0 Z M 0.453125 0 "/></g></g></g><g fill="#e31e25" fill-opacity="1"><g transform="translate(64.729522, 52.156811)"><g><path d="M 2.375 0.0625 C 1.738281 0.0625 1.25 -0.0859375 0.90625 -0.390625 C 0.570312 -0.703125 0.40625 -1.148438 0.40625 -1.734375 L 0.40625 -4.625 L 1.375 -4.625 L 1.375 -1.8125 C 1.375 -1.445312 1.457031 -1.164062 1.625 -0.96875 C 1.800781 -0.78125 2.054688 -0.6875 2.390625 -0.6875 C 2.742188 -0.6875 3.007812 -0.785156 3.1875 -0.984375 C 3.375 -1.179688 3.46875 -1.46875 3.46875 -1.84375 L 3.46875 -4.625 L 4.4375 -4.625 L 4.4375 -1.78125 C 4.4375 -1.195312 4.253906 -0.742188 3.890625 -0.421875 C 3.535156 -0.0976562 3.03125 0.0625 2.375 0.0625 Z M 2.375 0.0625 "/></g></g></g><g fill="#e31e25" fill-opacity="1"><g transform="translate(69.573886, 52.156811)"><g><path d="M 2.609375 -0.703125 C 3.191406 -0.703125 3.597656 -0.992188 3.828125 -1.578125 L 4.671875 -1.25 C 4.484375 -0.8125 4.210938 -0.484375 3.859375 -0.265625 C 3.515625 -0.046875 3.097656 0.0625 2.609375 0.0625 C 1.867188 0.0625 1.296875 -0.144531 0.890625 -0.5625 C 0.484375 -0.988281 0.28125 -1.578125 0.28125 -2.328125 C 0.28125 -3.085938 0.472656 -3.671875 0.859375 -4.078125 C 1.253906 -4.484375 1.820312 -4.6875 2.5625 -4.6875 C 3.101562 -4.6875 3.546875 -4.578125 3.890625 -4.359375 C 4.234375 -4.140625 4.472656 -3.820312 4.609375 -3.40625 L 3.75 -3.171875 C 3.675781 -3.398438 3.535156 -3.582031 3.328125 -3.71875 C 3.117188 -3.863281 2.867188 -3.9375 2.578125 -3.9375 C 2.140625 -3.9375 1.804688 -3.796875 1.578125 -3.515625 C 1.359375 -3.242188 1.25 -2.847656 1.25 -2.328125 C 1.25 -1.796875 1.363281 -1.390625 1.59375 -1.109375 C 1.832031 -0.835938 2.171875 -0.703125 2.609375 -0.703125 Z M 3.25 0.765625 C 3.25 0.972656 3.160156 1.128906 2.984375 1.234375 C 2.816406 1.335938 2.570312 1.390625 2.25 1.390625 C 2.15625 1.390625 2.046875 1.382812 1.921875 1.375 L 1.921875 0.984375 C 2.003906 1.003906 2.097656 1.015625 2.203125 1.015625 C 2.503906 1.015625 2.65625 0.9375 2.65625 0.78125 C 2.65625 0.707031 2.625 0.648438 2.5625 0.609375 C 2.5 0.578125 2.394531 0.5625 2.25 0.5625 C 2.164062 0.5625 2.109375 0.5625 2.078125 0.5625 L 2.28125 0 L 2.75 0 L 2.640625 0.265625 C 2.847656 0.273438 3 0.320312 3.09375 0.40625 C 3.195312 0.5 3.25 0.617188 3.25 0.765625 Z M 3.25 0.765625 "/></g></g></g><g fill="#e31e25" fill-opacity="1"><g transform="translate(74.418249, 52.156811)"><g><path d="M 4.9375 -2.328125 C 4.9375 -1.847656 4.84375 -1.425781 4.65625 -1.0625 C 4.46875 -0.695312 4.195312 -0.414062 3.84375 -0.21875 C 3.488281 -0.03125 3.070312 0.0625 2.59375 0.0625 C 1.875 0.0625 1.304688 -0.148438 0.890625 -0.578125 C 0.484375 -1.003906 0.28125 -1.585938 0.28125 -2.328125 C 0.28125 -3.066406 0.484375 -3.644531 0.890625 -4.0625 C 1.304688 -4.476562 1.878906 -4.6875 2.609375 -4.6875 C 3.335938 -4.6875 3.90625 -4.476562 4.3125 -4.0625 C 4.726562 -3.644531 4.9375 -3.066406 4.9375 -2.328125 Z M 3.953125 -2.328125 C 3.953125 -2.828125 3.832031 -3.21875 3.59375 -3.5 C 3.363281 -3.789062 3.035156 -3.9375 2.609375 -3.9375 C 2.171875 -3.9375 1.832031 -3.796875 1.59375 -3.515625 C 1.363281 -3.234375 1.25 -2.835938 1.25 -2.328125 C 1.25 -1.828125 1.367188 -1.429688 1.609375 -1.140625 C 1.847656 -0.847656 2.175781 -0.703125 2.59375 -0.703125 C 3.03125 -0.703125 3.363281 -0.84375 3.59375 -1.125 C 3.832031 -1.40625 3.953125 -1.804688 3.953125 -2.328125 Z M 3.140625 -5.015625 C 3.035156 -5.015625 2.9375 -5.035156 2.84375 -5.078125 C 2.75 -5.117188 2.65625 -5.164062 2.5625 -5.21875 C 2.46875 -5.269531 2.378906 -5.316406 2.296875 -5.359375 C 2.210938 -5.398438 2.140625 -5.421875 2.078125 -5.421875 C 1.984375 -5.421875 1.910156 -5.394531 1.859375 -5.34375 C 1.816406 -5.289062 1.78125 -5.179688 1.75 -5.015625 L 1.3125 -5.015625 C 1.320312 -5.265625 1.351562 -5.453125 1.40625 -5.578125 C 1.46875 -5.703125 1.546875 -5.800781 1.640625 -5.875 C 1.742188 -5.945312 1.878906 -5.984375 2.046875 -5.984375 C 2.140625 -5.984375 2.234375 -5.960938 2.328125 -5.921875 C 2.429688 -5.878906 2.53125 -5.832031 2.625 -5.78125 C 2.71875 -5.726562 2.800781 -5.679688 2.875 -5.640625 C 2.957031 -5.597656 3.03125 -5.578125 3.09375 -5.578125 C 3.1875 -5.578125 3.253906 -5.601562 3.296875 -5.65625 C 3.347656 -5.707031 3.390625 -5.816406 3.421875 -5.984375 L 3.859375 -5.984375 C 3.847656 -5.640625 3.78125 -5.390625 3.65625 -5.234375 C 3.53125 -5.085938 3.359375 -5.015625 3.140625 -5.015625 Z M 3.140625 -5.015625 "/></g></g></g><g fill="#e31e25" fill-opacity="1"><g transform="translate(79.636012, 52.156811)"><g><path d="M 0.453125 0 L 0.453125 -4.625 L 4.078125 -4.625 L 4.078125 -3.875 L 1.421875 -3.875 L 1.421875 -2.71875 L 3.890625 -2.71875 L 3.890625 -1.96875 L 1.421875 -1.96875 L 1.421875 -0.75 L 4.21875 -0.75 L 4.21875 0 Z M 0.453125 0 "/></g></g></g><g fill="#e31e25" fill-opacity="1"><g transform="translate(84.110248, 52.156811)"><g><path d="M 4.21875 -1.328125 C 4.21875 -0.878906 4.050781 -0.535156 3.71875 -0.296875 C 3.382812 -0.0546875 2.890625 0.0625 2.234375 0.0625 C 1.640625 0.0625 1.175781 -0.0390625 0.84375 -0.25 C 0.507812 -0.457031 0.289062 -0.773438 0.1875 -1.203125 L 1.125 -1.359375 C 1.1875 -1.109375 1.3125 -0.925781 1.5 -0.8125 C 1.6875 -0.707031 1.941406 -0.65625 2.265625 -0.65625 C 2.941406 -0.65625 3.28125 -0.863281 3.28125 -1.28125 C 3.28125 -1.40625 3.238281 -1.507812 3.15625 -1.59375 C 3.082031 -1.6875 2.972656 -1.757812 2.828125 -1.8125 C 2.691406 -1.875 2.421875 -1.941406 2.015625 -2.015625 C 1.671875 -2.097656 1.429688 -2.164062 1.296875 -2.21875 C 1.160156 -2.269531 1.035156 -2.328125 0.921875 -2.390625 C 0.816406 -2.453125 0.722656 -2.53125 0.640625 -2.625 C 0.566406 -2.71875 0.507812 -2.828125 0.46875 -2.953125 C 0.425781 -3.085938 0.40625 -3.238281 0.40625 -3.40625 C 0.40625 -3.820312 0.5625 -4.140625 0.875 -4.359375 C 1.195312 -4.578125 1.65625 -4.6875 2.25 -4.6875 C 2.820312 -4.6875 3.25 -4.597656 3.53125 -4.421875 C 3.820312 -4.242188 4.007812 -3.945312 4.09375 -3.53125 L 3.15625 -3.40625 C 3.113281 -3.601562 3.015625 -3.75 2.859375 -3.84375 C 2.710938 -3.945312 2.503906 -4 2.234375 -4 C 1.648438 -4 1.359375 -3.816406 1.359375 -3.453125 C 1.359375 -3.335938 1.382812 -3.238281 1.4375 -3.15625 C 1.5 -3.082031 1.59375 -3.019531 1.71875 -2.96875 C 1.84375 -2.914062 2.09375 -2.847656 2.46875 -2.765625 C 2.914062 -2.671875 3.234375 -2.582031 3.421875 -2.5 C 3.609375 -2.414062 3.757812 -2.320312 3.875 -2.21875 C 3.988281 -2.113281 4.070312 -1.988281 4.125 -1.84375 C 4.1875 -1.695312 4.21875 -1.523438 4.21875 -1.328125 Z M 4.21875 -1.328125 "/></g></g></g><g fill="#e31e25" fill-opacity="1"><g transform="translate(88.584484, 52.156811)"><g/></g></g><g fill="#e31e25" fill-opacity="1"><g transform="translate(90.448207, 52.156811)"><g><path d="M 0.453125 0 L 0.453125 -4.625 L 1.421875 -4.625 L 1.421875 0 Z M 0.453125 0 "/></g></g></g><g fill="#e31e25" fill-opacity="1"><g transform="translate(92.31193, 52.156811)"><g><path d="M 3.265625 0 L 1.25 -3.5625 C 1.289062 -3.21875 1.3125 -2.9375 1.3125 -2.71875 L 1.3125 0 L 0.453125 0 L 0.453125 -4.625 L 1.5625 -4.625 L 3.59375 -1.03125 C 3.5625 -1.363281 3.546875 -1.664062 3.546875 -1.9375 L 3.546875 -4.625 L 4.40625 -4.625 L 4.40625 0 Z M 3.265625 0 "/></g></g></g><g fill="#e31e25" fill-opacity="1"><g transform="translate(97.156294, 52.156811)"><g><path d="M 1.421875 -3.875 L 1.421875 -2.4375 L 3.78125 -2.4375 L 3.78125 -1.703125 L 1.421875 -1.703125 L 1.421875 0 L 0.453125 0 L 0.453125 -4.625 L 3.859375 -4.625 L 3.859375 -3.875 Z M 1.421875 -3.875 "/></g></g></g><g fill="#e31e25" fill-opacity="1"><g transform="translate(101.253859, 52.156811)"><g><path d="M 4.9375 -2.328125 C 4.9375 -1.847656 4.84375 -1.425781 4.65625 -1.0625 C 4.46875 -0.695312 4.195312 -0.414062 3.84375 -0.21875 C 3.488281 -0.03125 3.070312 0.0625 2.59375 0.0625 C 1.875 0.0625 1.304688 -0.148438 0.890625 -0.578125 C 0.484375 -1.003906 0.28125 -1.585938 0.28125 -2.328125 C 0.28125 -3.066406 0.484375 -3.644531 0.890625 -4.0625 C 1.304688 -4.476562 1.878906 -4.6875 2.609375 -4.6875 C 3.335938 -4.6875 3.90625 -4.476562 4.3125 -4.0625 C 4.726562 -3.644531 4.9375 -3.066406 4.9375 -2.328125 Z M 3.953125 -2.328125 C 3.953125 -2.828125 3.832031 -3.21875 3.59375 -3.5 C 3.363281 -3.789062 3.035156 -3.9375 2.609375 -3.9375 C 2.171875 -3.9375 1.832031 -3.796875 1.59375 -3.515625 C 1.363281 -3.234375 1.25 -2.835938 1.25 -2.328125 C 1.25 -1.828125 1.367188 -1.429688 1.609375 -1.140625 C 1.847656 -0.847656 2.175781 -0.703125 2.59375 -0.703125 C 3.03125 -0.703125 3.363281 -0.84375 3.59375 -1.125 C 3.832031 -1.40625 3.953125 -1.804688 3.953125 -2.328125 Z M 3.953125 -2.328125 "/></g></g></g><g fill="#e31e25" fill-opacity="1"><g transform="translate(106.471622, 52.156811)"><g><path d="M 3.625 0 L 2.546875 -1.75 L 1.421875 -1.75 L 1.421875 0 L 0.453125 0 L 0.453125 -4.625 L 2.765625 -4.625 C 3.304688 -4.625 3.726562 -4.503906 4.03125 -4.265625 C 4.332031 -4.023438 4.484375 -3.6875 4.484375 -3.25 C 4.484375 -2.925781 4.390625 -2.644531 4.203125 -2.40625 C 4.023438 -2.164062 3.78125 -2.007812 3.46875 -1.9375 L 4.71875 0 Z M 3.515625 -3.203125 C 3.515625 -3.648438 3.226562 -3.875 2.65625 -3.875 L 1.421875 -3.875 L 1.421875 -2.5 L 2.6875 -2.5 C 2.957031 -2.5 3.160156 -2.5625 3.296875 -2.6875 C 3.441406 -2.8125 3.515625 -2.984375 3.515625 -3.203125 Z M 3.515625 -3.203125 "/></g></g></g><g fill="#e31e25" fill-opacity="1"><g transform="translate(111.315985, 52.156811)"><g><path d="M 4.28125 0 L 4.28125 -2.796875 C 4.28125 -2.859375 4.28125 -2.921875 4.28125 -2.984375 C 4.289062 -3.054688 4.304688 -3.332031 4.328125 -3.8125 C 4.171875 -3.21875 4.050781 -2.804688 3.96875 -2.578125 L 3.140625 0 L 2.453125 0 L 1.625 -2.578125 L 1.265625 -3.8125 C 1.296875 -3.300781 1.3125 -2.960938 1.3125 -2.796875 L 1.3125 0 L 0.453125 0 L 0.453125 -4.625 L 1.75 -4.625 L 2.578125 -2.03125 L 2.640625 -1.78125 L 2.796875 -1.171875 L 3.015625 -1.90625 L 3.859375 -4.625 L 5.140625 -4.625 L 5.140625 0 Z M 4.28125 0 "/></g></g></g><g fill="#e31e25" fill-opacity="1"><g transform="translate(116.903867, 52.156811)"><g><path d="M 3.71875 0 L 3.3125 -1.1875 L 1.546875 -1.1875 L 1.140625 0 L 0.171875 0 L 1.859375 -4.625 L 3 -4.625 L 4.671875 0 Z M 2.421875 -3.90625 L 2.40625 -3.84375 C 2.382812 -3.757812 2.359375 -3.664062 2.328125 -3.5625 C 2.296875 -3.46875 2.109375 -2.914062 1.765625 -1.90625 L 3.09375 -1.90625 L 2.640625 -3.234375 L 2.5 -3.6875 Z M 1.875 -5.015625 L 1.875 -5.125 L 2.703125 -5.953125 L 3.546875 -5.953125 L 3.546875 -5.8125 L 2.4375 -5.015625 Z M 1.875 -5.015625 "/></g></g></g><g fill="#e31e25" fill-opacity="1"><g transform="translate(121.748231, 52.156811)"><g><path d="M 2.53125 -3.875 L 2.53125 0 L 1.5625 0 L 1.5625 -3.875 L 0.078125 -3.875 L 0.078125 -4.625 L 4.03125 -4.625 L 4.03125 -3.875 Z M 2.53125 -3.875 "/></g></g></g><g fill="#e31e25" fill-opacity="1"><g transform="translate(125.845797, 52.156811)"><g><path d="M 0.453125 0 L 0.453125 -4.625 L 1.421875 -4.625 L 1.421875 0 Z M 0.453125 0 "/></g></g></g><g fill="#e31e25" fill-opacity="1"><g transform="translate(127.70952, 52.156811)"><g><path d="M 2.609375 -0.703125 C 3.191406 -0.703125 3.597656 -0.992188 3.828125 -1.578125 L 4.671875 -1.25 C 4.484375 -0.8125 4.210938 -0.484375 3.859375 -0.265625 C 3.515625 -0.046875 3.097656 0.0625 2.609375 0.0625 C 1.867188 0.0625 1.296875 -0.144531 0.890625 -0.5625 C 0.484375 -0.988281 0.28125 -1.578125 0.28125 -2.328125 C 0.28125 -3.085938 0.472656 -3.671875 0.859375 -4.078125 C 1.253906 -4.484375 1.820312 -4.6875 2.5625 -4.6875 C 3.101562 -4.6875 3.546875 -4.578125 3.890625 -4.359375 C 4.234375 -4.140625 4.472656 -3.820312 4.609375 -3.40625 L 3.75 -3.171875 C 3.675781 -3.398438 3.535156 -3.582031 3.328125 -3.71875 C 3.117188 -3.863281 2.867188 -3.9375 2.578125 -3.9375 C 2.140625 -3.9375 1.804688 -3.796875 1.578125 -3.515625 C 1.359375 -3.242188 1.25 -2.847656 1.25 -2.328125 C 1.25 -1.796875 1.363281 -1.390625 1.59375 -1.109375 C 1.832031 -0.835938 2.171875 -0.703125 2.609375 -0.703125 Z M 2.609375 -0.703125 "/></g></g></g><g fill="#e31e25" fill-opacity="1"><g transform="translate(132.553883, 52.156811)"><g><path d="M 3.71875 0 L 3.3125 -1.1875 L 1.546875 -1.1875 L 1.140625 0 L 0.171875 0 L 1.859375 -4.625 L 3 -4.625 L 4.671875 0 Z M 2.421875 -3.90625 L 2.40625 -3.84375 C 2.382812 -3.757812 2.359375 -3.664062 2.328125 -3.5625 C 2.296875 -3.46875 2.109375 -2.914062 1.765625 -1.90625 L 3.09375 -1.90625 L 2.640625 -3.234375 L 2.5 -3.6875 Z M 2.421875 -3.90625 "/></g></g></g><g fill="#e31e25" fill-opacity="1"><g transform="translate(137.398247, 52.156811)"><g><path d="M 4.21875 -1.328125 C 4.21875 -0.878906 4.050781 -0.535156 3.71875 -0.296875 C 3.382812 -0.0546875 2.890625 0.0625 2.234375 0.0625 C 1.640625 0.0625 1.175781 -0.0390625 0.84375 -0.25 C 0.507812 -0.457031 0.289062 -0.773438 0.1875 -1.203125 L 1.125 -1.359375 C 1.1875 -1.109375 1.3125 -0.925781 1.5 -0.8125 C 1.6875 -0.707031 1.941406 -0.65625 2.265625 -0.65625 C 2.941406 -0.65625 3.28125 -0.863281 3.28125 -1.28125 C 3.28125 -1.40625 3.238281 -1.507812 3.15625 -1.59375 C 3.082031 -1.6875 2.972656 -1.757812 2.828125 -1.8125 C 2.691406 -1.875 2.421875 -1.941406 2.015625 -2.015625 C 1.671875 -2.097656 1.429688 -2.164062 1.296875 -2.21875 C 1.160156 -2.269531 1.035156 -2.328125 0.921875 -2.390625 C 0.816406 -2.453125 0.722656 -2.53125 0.640625 -2.625 C 0.566406 -2.71875 0.507812 -2.828125 0.46875 -2.953125 C 0.425781 -3.085938 0.40625 -3.238281 0.40625 -3.40625 C 0.40625 -3.820312 0.5625 -4.140625 0.875 -4.359375 C 1.195312 -4.578125 1.65625 -4.6875 2.25 -4.6875 C 2.820312 -4.6875 3.25 -4.597656 3.53125 -4.421875 C 3.820312 -4.242188 4.007812 -3.945312 4.09375 -3.53125 L 3.15625 -3.40625 C 3.113281 -3.601562 3.015625 -3.75 2.859375 -3.84375 C 2.710938 -3.945312 2.503906 -4 2.234375 -4 C 1.648438 -4 1.359375 -3.816406 1.359375 -3.453125 C 1.359375 -3.335938 1.382812 -3.238281 1.4375 -3.15625 C 1.5 -3.082031 1.59375 -3.019531 1.71875 -2.96875 C 1.84375 -2.914062 2.09375 -2.847656 2.46875 -2.765625 C 2.914062 -2.671875 3.234375 -2.582031 3.421875 -2.5 C 3.609375 -2.414062 3.757812 -2.320312 3.875 -2.21875 C 3.988281 -2.113281 4.070312 -1.988281 4.125 -1.84375 C 4.1875 -1.695312 4.21875 -1.523438 4.21875 -1.328125 Z M 4.21875 -1.328125 "/></g></g></g><g clip-path="url(#5933bdeff6)"><g clip-path="url(#bb10c73005)"><path fill="#009fe3" d="M 10.296875 33.503906 L 10.296875 53.214844 L 1.070312 53.214844 L 1.070312 33.503906 Z M 10.296875 33.503906 " fill-opacity="1" fill-rule="nonzero"/></g></g><g clip-path="url(#00db266e8d)"><g clip-path="url(#1c0bd9fdd4)"><path fill="#e31e25" d="M 22.273438 12.976562 L 22.273438 54.027344 L 13.046875 54.027344 L 13.046875 12.976562 Z M 22.273438 12.976562 " fill-opacity="1" fill-rule="nonzero"/></g></g><g clip-path="url(#db0dc5c335)"><g clip-path="url(#71e1438a44)"><path fill="#feed00" d="M 33.503906 20.132812 L 33.503906 37.839844 L 25.882812 37.839844 L 25.882812 20.132812 Z M 33.503906 20.132812 " fill-opacity="1" fill-rule="nonzero"/></g></g><g clip-path="url(#9a9368eb11)"><g clip-path="url(#6b5faad264)"><path fill="#009fe3" d="M 32.664062 39.480469 L 32.664062 53.199219 L 25.882812 53.199219 L 25.882812 39.480469 Z M 32.664062 39.480469 " fill-opacity="1" fill-rule="nonzero"/></g></g><g clip-path="url(#29ba3e298f)"><g clip-path="url(#4639879bc0)"><path fill="#009746" d="M 46.425781 30.878906 L 46.425781 53.222656 L 37.199219 53.222656 L 37.199219 30.878906 Z M 46.425781 30.878906 " fill-opacity="1" fill-rule="nonzero"/></g></g></svg>